<svg width="1440" height="835" viewBox="0 0 1440 835" fill="none" xmlns="http://www.w3.org/2000/svg">
<rect x="1604" y="574.532" width="1149" height="107.627" rx="53.8135" transform="rotate(-180 1604 574.532)" fill="#F296B2"/>
<rect x="1770" y="667" width="1781" height="92.4683" rx="46.2341" transform="rotate(-180 1770 667)" fill="#F296B2"/>
<rect x="773" y="484.337" width="764" height="107.627" rx="53.8135" transform="rotate(-180 773 484.337)" fill="#F296B2"/>
<rect x="614" y="392.627" width="528" height="107.627" rx="53.8135" transform="rotate(-180 614 392.627)" fill="#F296B2"/>
<rect x="265" y="574.532" width="516" height="107.627" rx="53.8135" transform="rotate(-180 265 574.532)" fill="#F296B2"/>
<circle cx="224.5" cy="282.5" r="40.5" fill="#F296B2"/>
<circle cx="143.5" cy="203.5" r="23.5" fill="#F296B2"/>
<circle cx="218.5" cy="116.5" r="13.5" fill="#F296B2"/>
<ellipse cx="1298" cy="153.5" rx="18" ry="18.5" fill="#F296B2"/>
<ellipse cx="1238.5" cy="247" rx="13.5" ry="14" fill="#F296B2"/>
<circle opacity="0.2" cx="1010" cy="323" r="323" fill="#F9C455"/>
<circle opacity="0.5" cx="1010" cy="323" r="220" fill="#F9C455"/>
<circle cx="1010" cy="323" r="184" fill="#F9C455"/>
<g style="mix-blend-mode:soft-light">
<path fill-rule="evenodd" clip-rule="evenodd" d="M1162.5 390H711.5H707H698.5C689.94 390 683 396.94 683 405.5C683 414.06 689.94 421 698.5 421H707H786.5C795.06 421 802 427.94 802 436.5C802 445.06 795.06 452 786.5 452H707H698.5H638.5C629.94 452 623 458.94 623 467.5C623 476.06 629.94 483 638.5 483H707H714.5C723.06 483 730 489.94 730 498.5C730 507.06 723.06 514 714.5 514H707H698.5C689.94 514 683 520.94 683 529.5C683 538.06 689.94 545 698.5 545H707H725.5H1162.5H1168H1175.5C1184.06 545 1191 538.06 1191 529.5C1191 520.94 1184.06 514 1175.5 514H1168H1065.5C1056.94 514 1050 507.06 1050 498.5C1050 489.94 1056.94 483 1065.5 483H1168H1175.5C1184.06 483 1191 476.06 1191 467.5C1191 458.94 1184.06 452 1175.5 452H1168H1137.5C1128.94 452 1122 445.06 1122 436.5C1122 427.94 1128.94 421 1137.5 421H1168H1175.5C1184.06 421 1191 414.06 1191 405.5C1191 396.94 1184.06 390 1175.5 390H1168H1162.5ZM875 452C883.56 452 890.5 458.94 890.5 467.5C890.5 476.06 883.56 483 875 483H810.5C801.939 483 795 489.94 795 498.5C795 507.06 801.939 514 810.5 514H991.5C1000.06 514 1007 507.06 1007 498.5C1007 489.94 1000.06 483 991.5 483H940C931.44 483 924.5 476.06 924.5 467.5C924.5 458.94 931.44 452 940 452H1041.5C1050.06 452 1057 445.06 1057 436.5C1057 427.94 1050.06 421 1041.5 421H860.5C851.939 421 845 427.94 845 436.5C845 445.06 851.939 452 860.5 452H875Z" fill="white"/>
</g>
<rect x="1751" y="653.02" width="1149" height="114.043" rx="57.0214" transform="rotate(-180 1751 653.02)" fill="#FFD0DF"/>
<rect x="1440" y="751" width="1440" height="123" transform="rotate(-180 1440 751)" fill="#FFD0DF"/>
<rect x="1530" y="557.448" width="673" height="114.043" rx="57.0214" transform="rotate(-180 1530 557.448)" fill="#FFD0DF"/>
<rect x="516" y="557.448" width="673" height="114.043" rx="57.0214" transform="rotate(-180 516 557.448)" fill="#FFD0DF"/>
<rect x="1524" y="453.043" width="460" height="114.043" rx="57.0214" transform="rotate(-180 1524 453.043)" fill="#FFD0DF"/>
<rect x="412" y="653.02" width="516" height="114.043" rx="57.0214" transform="rotate(-180 412 653.02)" fill="#FFD0DF"/>
<circle cx="287" cy="431" r="48" fill="#FFD0DF"/>
<ellipse cx="206" cy="354.5" rx="22" ry="22.5" fill="#FFD0DF"/>
<ellipse cx="245.5" cy="247" rx="13.5" ry="14" fill="#FFD0DF"/>
<circle cx="1315.5" cy="332.5" r="63.5" fill="#FFD0DF"/>
<ellipse cx="1379" cy="197.5" rx="24" ry="24.5" fill="#FFD0DF"/>
<rect width="1781" height="122" rx="61" transform="matrix(1 0 0 -1 -251 842)" fill="white"/>
<rect width="516" height="115" rx="57.5" transform="matrix(1 0 0 -1 1254 721)" fill="white"/>
<rect width="1149" height="115" rx="57.5" transform="matrix(1 0 0 -1 -85 721)" fill="white"/>
<rect width="673" height="108" rx="54" transform="matrix(1 0 0 -1 136 614)" fill="white"/>
</svg>
