<svg width="375" height="386" viewBox="0 0 375 386" fill="none" xmlns="http://www.w3.org/2000/svg">
<g clip-path="url(#clip0)">
<rect x="450.289" y="155.492" width="310.967" height="29.1283" rx="14.5642" transform="rotate(-180 450.289 155.492)" fill="#F296B2"/>
<rect x="495.216" y="180.518" width="482.012" height="25.0257" rx="12.5129" transform="rotate(-180 495.216 180.518)" fill="#F296B2"/>
<rect x="225.386" y="131.082" width="206.77" height="29.1283" rx="14.5642" transform="rotate(-180 225.386 131.082)" fill="#F296B2"/>
<rect x="182.354" y="106.261" width="142.899" height="29.1283" rx="14.5642" transform="rotate(-180 182.354 106.261)" fill="#F296B2"/>
<rect x="87.9004" y="155.492" width="139.651" height="29.1283" rx="14.5642" transform="rotate(-180 87.9004 155.492)" fill="#F296B2"/>
<circle cx="76.9395" cy="76.4562" r="10.961" fill="#F296B2"/>
<circle cx="55.0175" cy="55.0755" r="6.36007" fill="#F296B2"/>
<circle cx="75.3156" cy="31.5298" r="3.65366" fill="#F296B2"/>
<ellipse cx="367.473" cy="41.5435" rx="4.87154" ry="5.00687" fill="#F296B2"/>
<ellipse cx="351.37" cy="66.8484" rx="3.65366" ry="3.78898" fill="#F296B2"/>
<circle opacity="0.2" cx="289.528" cy="87.4172" r="87.4172" fill="#F9C455"/>
<circle opacity="0.5" cx="289.528" cy="87.4171" r="59.5411" fill="#F9C455"/>
<circle cx="289.528" cy="87.4171" r="49.798" fill="#F9C455"/>
<g style="mix-blend-mode:soft-light">
<path fill-rule="evenodd" clip-rule="evenodd" d="M330.987 105.5H208.781H207.561H205.258C202.939 105.5 201.058 107.38 201.058 109.7C201.058 112.02 202.939 113.9 205.258 113.9H207.561V113.9H229.103C231.423 113.9 233.303 115.78 233.303 118.1C233.303 120.42 231.423 122.3 229.103 122.3H205.258L205.24 122.3H189C186.68 122.3 184.8 124.18 184.8 126.5C184.8 128.82 186.68 130.7 189 130.7H207.561V130.7H209.594C211.913 130.7 213.794 132.58 213.794 134.9C213.794 137.22 211.913 139.1 209.594 139.1H205.241C202.929 139.109 201.058 140.986 201.058 143.3C201.058 145.62 202.939 147.5 205.258 147.5H207.561V147.5H332.478L334.51 147.5C336.829 147.5 338.71 145.62 338.71 143.3C338.71 140.986 336.839 139.109 334.527 139.1H304.703C302.384 139.1 300.503 137.22 300.503 134.9C300.503 132.58 302.384 130.7 304.703 130.7L332.478 130.7H334.51C336.829 130.7 338.71 128.82 338.71 126.5C338.71 124.184 336.836 122.306 334.522 122.3L334.51 122.3H324.213C321.893 122.3 320.013 120.42 320.013 118.1C320.013 115.78 321.893 113.9 324.213 113.9L332.478 113.9H334.51C336.829 113.9 338.71 112.02 338.71 109.7C338.71 107.38 336.829 105.5 334.51 105.5H332.478H330.987ZM253.084 122.3C255.403 122.3 257.284 124.181 257.284 126.5C257.284 128.809 255.422 130.682 253.117 130.7H235.606C233.287 130.7 231.406 132.58 231.406 134.9C231.406 137.22 233.287 139.1 235.606 139.1H284.652C286.971 139.1 288.852 137.22 288.852 134.9C288.852 132.58 286.971 130.7 284.652 130.7H270.663C268.359 130.682 266.497 128.809 266.497 126.5C266.497 124.181 268.377 122.3 270.697 122.3H253.084ZM298.2 113.9C300.52 113.9 302.4 115.78 302.4 118.1C302.4 120.42 300.52 122.3 298.2 122.3H249.155C246.835 122.3 244.955 120.42 244.955 118.1C244.955 115.78 246.835 113.9 249.155 113.9H298.2Z" fill="white"/>
</g>
<rect x="490.074" y="176.734" width="310.967" height="30.8647" rx="15.4324" transform="rotate(-180 490.074 176.734)" fill="#FFD0DF"/>
<rect x="304" y="203" width="102" height="29" transform="rotate(-180 304 203)" fill="#FFD0DF"/>
<rect x="430.262" y="150.869" width="182.142" height="30.8647" rx="15.4324" transform="rotate(-180 430.262 150.869)" fill="#FFD0DF"/>
<rect x="155.831" y="150.869" width="182.142" height="30.8647" rx="15.4324" transform="rotate(-180 155.831 150.869)" fill="#FFD0DF"/>
<rect x="428.638" y="122.612" width="124.495" height="30.8647" rx="15.4324" transform="rotate(-180 428.638 122.612)" fill="#FFD0DF"/>
<rect x="127.685" y="176.734" width="139.651" height="30.8647" rx="15.4324" transform="rotate(-180 127.685 176.734)" fill="#FFD0DF"/>
<circle cx="93.8546" cy="116.646" r="12.9908" fill="#FFD0DF"/>
<ellipse cx="71.9326" cy="95.9424" rx="5.95411" ry="6.08943" fill="#FFD0DF"/>
<ellipse cx="82.623" cy="66.8484" rx="3.65366" ry="3.78898" fill="#FFD0DF"/>
<circle cx="372.209" cy="89.9883" r="17.1857" fill="#FFD0DF"/>
<path d="M269 182.5C269 189.404 274.596 195 281.5 195H377V170H281.5C274.596 170 269 175.596 269 182.5V182.5Z" fill="white"/>
<rect width="253.228" height="25.3449" rx="12.6724" transform="matrix(1 0 0 -1 -26 194.862)" fill="white"/>
<rect width="148.323" height="23.8022" rx="11.9011" transform="matrix(1 0 0 -1 22.7062 171.28)" fill="white"/>
<rect width="482.012" height="310" transform="matrix(1 0 0 -1 -51.7505 504)" fill="white"/>
</g>
<defs>
<clipPath id="clip0">
<rect x="-52" width="427" height="386" fill="white"/>
</clipPath>
</defs>
</svg>
