<svg width="719" height="571" viewBox="0 0 719 571" fill="none" xmlns="http://www.w3.org/2000/svg">
<path d="M395.5 423.501H472L665 152.501L555.5 204.501L616 197.001" stroke="#F4B4D0" stroke-width="31" stroke-linecap="round" stroke-linejoin="round"/>
<rect x="608" y="193.001" width="106" height="29" rx="14.5" fill="#F4B4D0"/>
<rect x="539" y="188.001" width="106" height="36" rx="18" fill="#F4B4D0"/>
<ellipse cx="434.392" cy="232.637" rx="67.9546" ry="55.2295" transform="rotate(-55.5 434.392 232.637)" fill="#BE3079"/>
<path fill-rule="evenodd" clip-rule="evenodd" d="M414.92 273.597C431.076 279.598 451.907 271.513 464.446 253.269C476.33 235.977 477.026 215.003 467.367 201.849L414.92 273.597ZM453.823 191.571C437.654 185.504 416.766 193.585 404.203 211.865C392.294 229.192 391.621 250.217 401.342 263.365L453.823 191.571Z" fill="#F4B4D0"/>
<path d="M603.5 314H703L548 528.5" stroke="#F4B4D0" stroke-width="31" stroke-linecap="round" stroke-linejoin="round"/>
<path d="M30.5 415H84L29 489.5" stroke="#F4B4D0" stroke-width="31" stroke-linecap="round" stroke-linejoin="round"/>
<path d="M317 250L178 440H317" stroke="#F4B4D0" stroke-width="47" stroke-linecap="round" stroke-linejoin="round"/>
<path d="M378 365L245 547" stroke="#F4B4D0" stroke-width="47" stroke-linecap="round"/>
<path d="M134.5 106L175.5 50H336L116 354" stroke="#F4B4D0" stroke-width="47" stroke-linecap="round" stroke-linejoin="round"/>
<path d="M128.5 192H324" stroke="#F4B4D0" stroke-width="47" stroke-linecap="round"/>
<path d="M380.5 403.5H457L650 132.5L540.5 184.5L601 177" stroke="#BE3079" stroke-width="31" stroke-linecap="round" stroke-linejoin="round"/>
<rect x="593" y="173" width="106" height="29" rx="14.5" fill="#BE3079"/>
<rect x="524" y="168" width="106" height="36" rx="18" fill="#BE3079"/>
<path d="M300.5 224.5L161.5 414.5H300.5" stroke="#BE3079" stroke-width="47" stroke-linecap="round" stroke-linejoin="round"/>
<path d="M361.5 339.5L228.5 521.5" stroke="#BE3079" stroke-width="47" stroke-linecap="round"/>
<path d="M591.5 298H691L536 512.5" stroke="#BE3079" stroke-width="31" stroke-linecap="round" stroke-linejoin="round"/>
<path d="M17 398.5H70.5L15.5 473" stroke="#BE3079" stroke-width="31" stroke-linecap="round" stroke-linejoin="round"/>
<path d="M119 80L160 24H320.5L100.5 328" stroke="#BE3079" stroke-width="47" stroke-linecap="round" stroke-linejoin="round"/>
<path d="M113 166H308.5" stroke="#BE3079" stroke-width="47" stroke-linecap="round"/>
</svg>
