<svg width="719" height="571" viewBox="0 0 719 571" fill="none" xmlns="http://www.w3.org/2000/svg">
<path d="M603.5 314H703L548 528.5" stroke="#F4B4D0" stroke-width="31" stroke-linecap="round" stroke-linejoin="round"/>
<path fill-rule="evenodd" clip-rule="evenodd" d="M676.878 142.543C681.413 147.953 681.72 155.743 677.625 161.492L655.186 193.001H699.5C707.508 193.001 714 199.493 714 207.501C714 215.509 707.508 222.001 699.5 222.001H635.254C634.898 222.185 634.534 222.358 634.164 222.519L484.625 432.492C481.717 436.576 477.013 439.001 472 439.001H395.5C386.94 439.001 380 432.061 380 423.501C380 414.94 386.94 408.001 395.5 408.001H464.01L595.05 224.001H557C547.059 224.001 539 215.942 539 206.001C539 197.321 545.143 190.076 553.319 188.378L658.351 138.499C664.727 135.471 672.344 137.134 676.878 142.543Z" fill="#F4B4D0"/>
<ellipse cx="434.392" cy="232.637" rx="67.9546" ry="55.2295" transform="rotate(-55.5 434.392 232.637)" fill="#F4B4D0"/>
<path d="M30.5 415H84L29 489.5" stroke="#F4B4D0" stroke-width="31" stroke-linecap="round" stroke-linejoin="round"/>
<path fill-rule="evenodd" clip-rule="evenodd" d="M335.966 263.875C343.63 253.401 341.35 238.697 330.875 231.034C320.401 223.37 305.697 225.65 298.034 236.125L159.034 426.125C153.808 433.268 153.039 442.742 157.044 450.634C161.049 458.527 169.149 463.5 178 463.5H276.913L226.026 533.135C218.369 543.614 220.656 558.316 231.135 565.974C241.613 573.631 256.316 571.344 263.974 560.865L396.974 378.865C404.631 368.387 402.344 353.684 391.865 346.026C381.387 338.369 366.684 340.656 359.026 351.135L311.259 416.5H224.309L335.966 263.875Z" fill="#F4B4D0"/>
<path fill-rule="evenodd" clip-rule="evenodd" d="M175.5 26.5C168.008 26.5 160.965 30.0725 156.539 36.1176L115.539 92.1176C107.872 102.59 110.146 117.294 120.618 124.961C131.09 132.628 145.794 130.354 153.461 119.882L187.42 73.5H289.985L221.235 168.5H128.5C115.521 168.5 105 179.021 105 192C105 204.979 115.521 215.5 128.5 215.5H187.222L96.9623 340.223C89.3533 350.737 91.7084 365.429 102.223 373.038C112.737 380.647 127.429 378.292 135.038 367.777L245.238 215.5H324C336.979 215.5 347.5 204.979 347.5 192C347.5 179.021 336.979 168.5 324 168.5H279.252L355.038 63.7773C360.214 56.6248 360.944 47.1745 356.929 39.3116C352.913 31.4487 344.829 26.5 336 26.5H175.5Z" fill="#F4B4D0"/>
<path d="M591.5 298H691L536 512.5" stroke="#BE3079" stroke-width="31" stroke-linecap="round" stroke-linejoin="round"/>
<path fill-rule="evenodd" clip-rule="evenodd" d="M661.878 122.543C666.413 127.952 666.72 135.742 662.625 141.492L640.186 173H684.5C692.508 173 699 179.492 699 187.5C699 195.508 692.508 202 684.5 202H620.254C619.898 202.184 619.534 202.357 619.164 202.518L469.625 412.492C466.717 416.575 462.013 419 457 419H380.5C371.94 419 365 412.06 365 403.5C365 394.94 371.94 388 380.5 388H449.01L580.05 204H542C532.059 204 524 195.941 524 186C524 177.32 530.143 170.075 538.319 168.377L643.351 118.499C649.727 115.471 657.344 117.133 661.878 122.543Z" fill="#BE3079"/>
<path fill-rule="evenodd" clip-rule="evenodd" d="M479.908 263.919C501.165 232.989 498.019 193.91 472.882 176.634C447.744 159.357 410.133 170.425 388.876 201.354C367.618 232.284 370.764 271.363 395.902 288.64C421.04 305.917 458.65 294.849 479.908 263.919ZM464.446 253.269C451.907 271.513 431.076 279.598 414.92 273.597L467.367 201.849C477.026 215.003 476.33 235.977 464.446 253.269ZM404.203 211.865C416.766 193.585 437.654 185.504 453.823 191.571L401.342 263.365C391.62 250.217 392.294 229.192 404.203 211.865Z" fill="#BE3079"/>
<path fill-rule="evenodd" clip-rule="evenodd" d="M319.466 238.375C327.13 227.901 324.85 213.197 314.375 205.534C303.901 197.87 289.197 200.15 281.534 210.625L142.534 400.625C137.308 407.768 136.539 417.242 140.544 425.134C144.549 433.027 152.649 438 161.5 438H260.413L209.526 507.635C201.869 518.114 204.156 532.816 214.635 540.474C225.113 548.131 239.816 545.844 247.474 535.365L380.474 353.365C388.131 342.887 385.844 328.184 375.365 320.526C364.887 312.869 350.184 315.156 342.526 325.635L294.759 391H207.809L319.466 238.375Z" fill="#BE3079"/>
<path d="M17 398.5H70.5L15.5 473" stroke="#BE3079" stroke-width="31" stroke-linecap="round" stroke-linejoin="round"/>
<path fill-rule="evenodd" clip-rule="evenodd" d="M160 0.5C152.508 0.5 145.465 4.07247 141.039 10.1176L100.039 66.1176C92.3717 76.5897 94.6456 91.2943 105.118 98.9613C115.59 106.628 130.294 104.354 137.961 93.8824L171.92 47.5H274.485L205.735 142.5H113C100.021 142.5 89.5 153.021 89.5 166C89.5 178.979 100.021 189.5 113 189.5H171.722L81.4623 314.223C73.8533 324.737 76.2084 339.429 86.7227 347.038C97.2369 354.647 111.929 352.292 119.538 341.777L229.738 189.5H308.5C321.479 189.5 332 178.979 332 166C332 153.021 321.479 142.5 308.5 142.5H263.752L339.538 37.7773C344.714 30.6248 345.444 21.1745 341.429 13.3116C337.413 5.44868 329.329 0.5 320.5 0.5H160Z" fill="#BE3079"/>
</svg>
