<svg id="Layer_1" data-name="Layer 1" xmlns="http://www.w3.org/2000/svg" viewBox="0 0 451.8 359.28"><defs><style>.cls-1{fill:#f39cc1;}.cls-2{fill:#be3279;}</style></defs><title>Artboard 1</title><path class="cls-1" d="M104.75,17.1c2-1.07,48.26-1.07,111.46,0a16,16,0,0,1,8.17,7c3.89,6.94.66,14.09.31,14.84l-49.37,66.93h33.31a16.07,16.07,0,0,1-.6,30H153.81L82.94,234.26a15.45,15.45,0,0,1-24.53-16.35l59.36-81.78H76.58a15.36,15.36,0,0,1,2.73-30h59.06L182,46.78H117.47L94.75,78A14.92,14.92,0,0,1,71.13,61L99.9,20.74a18,18,0,0,1,2.42-2.12A21.79,21.79,0,0,1,104.75,17.1Z"/><path class="cls-1" d="M99.6,268.49c-.26.33-4.93,6.57-2.12,13.93,2.61,6.83,9.38,8.63,10,8.78h66.64l-34.23,47.86a14.91,14.91,0,0,0,23.62,16.35l87.23-121.15a14.29,14.29,0,0,0-24.45-13.93L195,261.83H140.79l72.08-99.65"/><path class="cls-1" d="M99.14,269.15l88.75-122a15,15,0,0,1,25,15l-3.19,4.42"/><path class="cls-1" d="M8.72,304.82a10.12,10.12,0,0,0,2.5,10A10.29,10.29,0,0,0,23.71,316l37.71-50.66a9.72,9.72,0,0,0,.45-7,10.11,10.11,0,0,0-6.36-6.13H16.22a9.67,9.67,0,0,0,.22,18.4H33.93Z"/><path class="cls-1" d="M292.53,256.46l.31-.43,82.38-115.27h-27a12.15,12.15,0,0,1-8.63-10.45c-.48-6,4.13-9.89,4.55-10.22l71.55-32.48a9.76,9.76,0,0,1,10.22,3,10.08,10.08,0,0,1,1.82,8.63l-15.67,22,29.53.45a9.1,9.1,0,0,1-.23,17.95H398.84l-92,128.8a17.64,17.64,0,0,1-13.63,7.49H247.33a9.55,9.55,0,0,1-.69-18.85Z"/><path class="cls-1" d="M379.21,207.14l44.53.45-87,120.85a9.73,9.73,0,0,0,15,11.59l99.49-138.34c.16-.34,2.24-5-.45-9.32a9.89,9.89,0,0,0-10.22-4.31H379A9.86,9.86,0,0,0,377.47,207l.76.15Z"/><path class="cls-2" d="M95.26.61c2-1.07,48.26-1.08,111.45,0a16,16,0,0,1,8.18,7c3.89,6.94.66,14.09.31,14.84L165.83,89.35h33.31a16.07,16.07,0,0,1-.6,30H144.32L73.45,217.77a15.45,15.45,0,0,1-24.53-16.35l59.36-81.78H67.09a15.36,15.36,0,0,1,2.72-30h59.07l43.61-59.37H108L85.26,61.49a14.92,14.92,0,0,1-23.62-17L90.41,4.24a19.5,19.5,0,0,1,2.42-2.12A22.6,22.6,0,0,1,95.26.61Z"/><path class="cls-2" d="M90.11,252c-.26.33-4.93,6.57-2.12,13.93,2.61,6.83,9.38,8.63,10,8.78h66.63l-34.22,47.86A14.91,14.91,0,0,0,154,338.92l87.23-121.15a14.28,14.28,0,0,0-24.45-13.93l-31.28,41.49H131.3l72.08-99.64"/><path class="cls-2" d="M89.65,252.66l88.75-122a15,15,0,0,1,25,15l-3.19,4.42"/><path class="cls-2" d="M.23,294.32a10.13,10.13,0,0,0,2.5,10,10.3,10.3,0,0,0,12.49,1.14L52.93,254.8a9.73,9.73,0,0,0,.45-7A10.17,10.17,0,0,0,47,241.62H7.72A9.67,9.67,0,0,0,8,260H25.44Z"/><path class="cls-2" d="M283,244l.31-.43,82.38-115.27h-27a12.15,12.15,0,0,1-8.63-10.45c-.48-6,4.13-9.89,4.54-10.22l71.56-32.48a9.74,9.74,0,0,1,10.22,2.95,10.08,10.08,0,0,1,1.82,8.63l-15.68,22,29.54.45a9.1,9.1,0,0,1-.23,18H389.35l-92,128.8a17.64,17.64,0,0,1-13.63,7.49H237.84a9.55,9.55,0,0,1-.69-18.85Z"/><path class="cls-2" d="M370.72,196.65l44.53.45L328.24,318a9.73,9.73,0,0,0,15,11.58L442.73,191.2c.16-.34,2.24-5-.45-9.32a9.89,9.89,0,0,0-10.22-4.31H370.5A9.86,9.86,0,0,0,369,196.5l.76.15Z"/><ellipse class="cls-2" cx="273.32" cy="146.09" rx="42.79" ry="34.98" transform="translate(-5.53 281.34) rotate(-54)"/><ellipse class="cls-1" cx="272.75" cy="146.96" rx="28.61" ry="22.78" transform="translate(-6.46 281.23) rotate(-54)"/><polyline class="cls-2" points="248.49 169.37 287.75 116.06 296.54 122.15 256.9 176.56"/></svg>