<svg width="205" height="114" viewBox="0 0 205 114" fill="none" xmlns="http://www.w3.org/2000/svg">
<rect x="205" y="60" width="141" height="23" rx="11.5" transform="rotate(-180 205 60)" fill="#D9FBF3"/>
<rect x="190" y="39" width="83" height="24" rx="12" transform="rotate(-180 190 39)" fill="#D9FBF3"/>
<ellipse cx="160" cy="13.5" rx="13" ry="13.5" fill="#D9FBF3"/>
<rect x="107" y="97.473" width="101.939" height="16.6284" rx="8.31419" transform="rotate(-180 107 97.473)" fill="#D9FBF3"/>
<rect x="89.6487" y="113.378" width="60.0068" height="17.3514" rx="8.67568" transform="rotate(-180 89.6487 113.378)" fill="#D9FBF3"/>
<rect x="60.0067" y="87.3514" width="60.0068" height="17.3514" rx="8.67568" transform="rotate(-180 60.0067 87.3514)" fill="#D9FBF3"/>
<rect x="58" y="34" width="49" height="24" rx="12" transform="rotate(-180 58 34)" fill="#B3F8E7" fill-opacity="0.3"/>
<rect x="156" y="101" width="31" height="24" rx="12" transform="rotate(-180 156 101)" fill="#B3F8E7" fill-opacity="0.3"/>
<rect x="59.8734" y="59.0704" width="42.7737" height="9.62078" rx="4.81039" transform="rotate(45 59.8734 59.0704)" fill="#40EDC2"/>
<rect x="153.63" y="26.2918" width="97.3362" height="9.62078" rx="4.81039" transform="rotate(135 153.63 26.2918)" fill="#40EDC2"/>
</svg>
