<svg xmlns="http://www.w3.org/2000/svg" xmlns:xlink="http://www.w3.org/1999/xlink" viewBox="0 0 909.82 1213.09"><defs><style>.cls-1{fill:none;}.cls-2{clip-path:url(#clip-path);}.cls-3{fill:#fff;}.cls-4{fill:#f5b5d1;}.cls-5{fill:#bf2d78;}</style><clipPath id="clip-path"><rect class="cls-1" width="909.82" height="1213.09"/></clipPath></defs><title>ticket</title><g id="Static_overlay" data-name="Static overlay"><path d="M212.7,482.69a27.29,27.29,0,0,1-19,7.37c-17,0-27.88-13.62-27.88-28.92V461c0-15.29,10.9-28.91,27.88-28.91s27.87,13.62,27.87,28.91v.16a30.3,30.3,0,0,1-7.69,20.35l8.09,7.05-1.12,1.28Zm-1.28-1.12L199,470.76l1.12-1.29,12.5,10.9a28.3,28.3,0,0,0,7.21-19.15v-.16c0-14.33-10.58-27.39-26.19-27.39s-26,12.82-26,27.23v.16c0,14.34,10.58,27.4,26.2,27.4A25.21,25.21,0,0,0,211.42,481.57Z"/><path d="M234.08,471.72V449.05h1.69v22.51c0,10,5.2,16.9,15.29,16.9,8.89,0,15.94-7.61,15.94-17.22V449.05h1.68V489.1H267v-11a16.56,16.56,0,0,1-16.1,11.94C240.09,490.06,234.08,482.77,234.08,471.72Z"/><path d="M280.78,469.07v-.16c0-11.85,8.09-20.82,19.22-20.82,12.66,0,18.42,11.13,18.42,21.14v.32h-35.8c.32,11.54,8.41,18.91,18.26,18.91,6.17,0,11.62-3.61,14.82-8.09l1.36,1a19.8,19.8,0,0,1-16.26,8.73C289.83,490.06,280.78,482,280.78,469.07Zm35.8-1c-.32-9.13-6.09-18.34-16.66-18.34-9.93,0-16.9,7.85-17.3,18.34Z"/><path d="M329.48,471.72V449.05h1.68v22.51c0,10,5.2,16.9,15.3,16.9,8.89,0,15.94-7.61,15.94-17.22V449.05h1.68V489.1H362.4v-11a16.58,16.58,0,0,1-16.1,11.94C335.48,490.06,329.48,482.77,329.48,471.72Z"/><path d="M376.17,469.07v-.16c0-11.85,8.09-20.82,19.22-20.82,12.66,0,18.43,11.13,18.43,21.14v.32H378c.32,11.54,8.41,18.91,18.27,18.91,6.16,0,11.61-3.61,14.81-8.09l1.36,1a19.8,19.8,0,0,1-16.25,8.73C385.22,490.06,376.17,482,376.17,469.07Zm35.8-1c-.32-9.13-6.08-18.34-16.66-18.34-9.93,0-16.9,7.85-17.3,18.34Z"/><path d="M449,433h1.52l42.61,53.18V433h1.68V489.1h-1.52l-42.61-53.19V489.1H449Z"/><path d="M509.77,471.72V449.05h1.68v22.51c0,10,5.21,16.9,15.3,16.9,8.89,0,15.94-7.61,15.94-17.22V449.05h1.68V489.1h-1.68v-11a16.57,16.57,0,0,1-16.1,11.94C515.78,490.06,509.77,482.77,509.77,471.72Z"/><path d="M559.27,449.05H561V459.3c1.2-5.12,6.65-11.21,13.86-11.21,8.73,0,13.13,5.44,14.57,11.93,1.53-5.76,7.13-11.93,14.34-11.93,8.89,0,15.06,5.93,15.06,17.3V489.1H617.1V465.55c0-10.41-5.53-15.86-13.46-15.86-6.89,0-13.78,6.89-13.78,16V489.1h-1.68V465.55c0-10.41-5.52-15.86-13.45-15.86-6.89,0-13.78,6.89-13.78,16V489.1h-1.68Z"/><path d="M634.88,476.68V489.1H633.2V430.63h1.68v30.83a18.86,18.86,0,0,1,18.5-13.37c11.61,0,20,9.29,20,20.9v.16c0,11.62-8.41,20.91-20,20.91A18.85,18.85,0,0,1,634.88,476.68Zm36.76-7.45v-.16c0-10.65-7.37-19.38-18.34-19.38s-18.5,8.89-18.5,19.3v.16c0,10.33,7.69,19.31,18.5,19.31C664.27,488.46,671.64,480,671.64,469.23Z"/><path d="M682.86,469.07v-.16c0-11.85,8.09-20.82,19.22-20.82,12.65,0,18.42,11.13,18.42,21.14v.32H684.7c.32,11.54,8.41,18.91,18.26,18.91,6.17,0,11.61-3.61,14.82-8.09l1.36,1a19.82,19.82,0,0,1-16.26,8.73C691.91,490.06,682.86,482,682.86,469.07Zm35.8-1c-.32-9.13-6.09-18.34-16.66-18.34-9.93,0-16.9,7.85-17.3,18.34Z"/><path d="M732.35,449.05H734v12.81c1.84-6.64,7.61-13.85,16.5-13.77v1.6h-.4c-10,0-16.1,11-16.1,18.66V489.1h-1.69Z"/><g class="cls-2"><path class="cls-3" d="M7.87,37.74,13,31.66A16.4,16.4,0,0,0,23,35c1.71,0,2.45-.45,2.45-1.22V33.7c0-.82-.9-1.27-4-1.88-6.41-1.31-12-3.14-12-9.18v-.09c0-5.42,4.24-9.63,12.12-9.63,5.51,0,9.59,1.31,12.9,3.92l-4.65,6.45a15,15,0,0,0-8.58-2.82c-1.42,0-2.08.49-2.08,1.19v.08c0,.77.78,1.26,3.8,1.84,7.3,1.34,12.2,3.46,12.2,9.22v.08c0,6-4.94,9.68-12.61,9.68C16.72,42.56,11.5,40.92,7.87,37.74Z"/><path class="cls-3" d="M46.73,13.25h9.46L68.24,42H57.87l-1.51-3.83h-10L44.89,42H34.68ZM54,31.41l-2.61-6.94-2.61,6.94Z"/><path class="cls-3" d="M73.09,21.53h-8.4V13.45H91.05v8.08h-8.4V42H73.09Z"/><path class="cls-3" d="M93,29.21V13.45h9.72V29.09c0,3.55,1.83,5.06,4.41,5.06s4.4-1.39,4.4-4.86V13.45h9.72V29c0,9.76-5.68,13.6-14.21,13.6S93,38.68,93,29.21Z"/><path class="cls-3" d="M124.24,13.45h14c5.06,0,8.28,1.27,10.28,3.27a8.94,8.94,0,0,1,2.62,6.77v.09a9.24,9.24,0,0,1-5.64,8.73L152.12,42h-10.9l-5.39-8.16h-2V42h-9.55ZM137.91,27c2.29,0,3.68-1,3.68-2.77v-.08c0-1.84-1.43-2.74-3.64-2.74h-4.16V27Z"/><path class="cls-3" d="M153.43,13.45h10.93c11.35,0,17,5.59,17,14v.09C181.38,36,175.59,42,164,42H153.43ZM164.57,33.7c4.37,0,7.18-1.8,7.18-5.92V27.7c0-4.12-2.81-5.92-7.18-5.92H163V33.7Z"/><path class="cls-3" d="M191.92,13.25h9.47l12,28.77H203.06l-1.51-3.83h-10L190.08,42h-10.2Zm7.26,18.16-2.61-6.94L194,31.41Z"/><path class="cls-3" d="M218.65,31.9,207.88,13.45h10.69l4.9,9.39,4.94-9.39H239L228.2,31.78V42h-9.55Z"/><path class="cls-3" d="M249.1,34.15v-.08c0-3.47,2.05-5.6,5.15-6.86A6.87,6.87,0,0,1,250.08,21v-.08c0-4.69,4.7-8,11.47-8s11.47,3.31,11.47,8V21a6.88,6.88,0,0,1-4.16,6.21c2.9,1.18,5.14,3.22,5.14,6.86v.08c0,5-5.06,8.41-12.45,8.41S249.1,39.09,249.1,34.15Zm15.76-1.06V33c0-1.55-1.31-2.77-3.31-2.77s-3.3,1.22-3.3,2.77v.09c0,1.42,1.1,2.85,3.3,2.85A3,3,0,0,0,264.86,33.09Zm-.33-10.9v-.08a3,3,0,0,0-6,0v.08a3,3,0,0,0,6,0Z"/><path class="cls-3" d="M276.14,18.17V13.06h-1.75V8.3h1.75V4.57h6.17V8.3h3.43v4.76h-3.43v3.75c0,1.12.52,1.52,1.5,1.52a4.66,4.66,0,0,0,1.88-.46v4.76a8.88,8.88,0,0,1-3.95.85C278.09,23.48,276.14,21.79,276.14,18.17Z"/><path class="cls-3" d="M287.13,3.29h6.17v7a5.71,5.71,0,0,1,4.55-2.34c3.13,0,5.09,2.07,5.09,5.42v9.79h-6.18V15.34a1.77,1.77,0,0,0-1.69-2,1.83,1.83,0,0,0-1.77,2v7.81h-6.17Z"/></g><path class="cls-3" d="M9.32,59.24H32.76v1H10.38V76h20.3v1H10.38V93.16H9.32Z"/><path class="cls-3" d="M39.55,59.24H63.24v1H40.62V75.62H61.16v1H40.62v15.6H63.48v1H39.55Z"/><path class="cls-3" d="M71.58,59.24h13.9c3.93,0,7,1,8.92,2.91a7.69,7.69,0,0,1,2.18,5.62v.1a8,8,0,0,1-6.54,8c4.65.68,8.33,3.88,8.33,8.43v.1c0,5.57-4.46,8.77-12.11,8.77H71.58ZM86.26,75.52c5,0,9.25-2.42,9.25-7.6v-.1c0-4.6-3.73-7.61-10.08-7.61H72.64V75.52Zm0,16.67c7,0,11-2.86,11-7.75v-.1c0-5.14-4.65-7.85-10.22-7.85H72.64v15.7Z"/><path class="cls-3" d="M106.7,59.24h13.86c4.41,0,7.65,1.12,9.74,3.2a8.62,8.62,0,0,1,2.42,6.3v.1c0,5.71-4.55,9.1-11.09,9.49l11.28,14.83h-1.3L120.37,78.38h-12.6V93.16H106.7ZM120,77.41c7.85,0,11.62-3.73,11.62-8.53v-.09c0-5.38-4.16-8.58-11.19-8.58H107.77v17.2Z"/><path class="cls-3" d="M141.25,78.14V59.24h1.07v18.9c0,9.74,5.18,14.58,12.69,14.58s12.6-4.84,12.6-14.53V59.24h1.06v18.9c0,10.37-5.52,15.55-13.71,15.55S141.25,88.55,141.25,78.14Z"/><path class="cls-3" d="M189.9,59h.92l16.32,34.16H206L201.14,83H179.53l-4.85,10.18h-1.11Zm10.75,23-10.32-21.6L180,82Z"/><path class="cls-3" d="M214,59.24h13.85c4.41,0,7.66,1.12,9.74,3.2a8.62,8.62,0,0,1,2.42,6.3v.1c0,5.71-4.55,9.1-11.09,9.49l11.29,14.83h-1.31L227.64,78.38H215V93.16H214ZM227.3,77.41c7.85,0,11.63-3.73,11.63-8.53v-.09c0-5.38-4.17-8.58-11.19-8.58H215v17.2Z"/><path class="cls-3" d="M258.21,79,243.87,59.24h1.26L258.8,78l13.51-18.8h1.26L259.28,79v14.2h-1.07Z"/><path class="cls-3" d="M8.83,151.3l16.73-16.21c5.7-5.49,6.6-8.5,6.6-11.19,0-4.49-4-8.34-9.77-8.34-5.38,0-9.18,3.16-11.51,7.44l-1-.58c2.48-4.59,6.6-7.92,12.57-7.92,6.49,0,10.87,4.22,10.87,9.29v.11c0,3.17-1,6.12-7.07,12l-15.52,15H33.85V152h-25Z"/><path class="cls-3" d="M40.29,133.56v-.11c0-10.08,5.49-19,15.1-19s15.1,8.92,15.1,19v.11c0,10.08-5.49,19.06-15.1,19.06S40.29,143.7,40.29,133.56Zm29,.05v-.1c0-9.4-5.07-18.06-14-18.06s-13.89,8.5-13.89,18v.11c0,9.4,5.07,18.05,14,18.05S69.33,143.06,69.33,133.61Z"/><path class="cls-3" d="M75.77,151.3,92.5,135.09c5.7-5.49,6.6-8.5,6.6-11.19,0-4.49-4-8.34-9.77-8.34-5.38,0-9.18,3.16-11.51,7.44l-1-.58c2.48-4.59,6.6-7.92,12.57-7.92,6.49,0,10.87,4.22,10.87,9.29v.11c0,3.17-1,6.12-7.07,12l-15.52,15h23.12V152h-25Z"/><path class="cls-3" d="M107.23,133.56v-.11c0-10.08,5.49-19,15.1-19s15.1,8.92,15.1,19v.11c0,10.08-5.49,19.06-15.1,19.06S107.23,143.7,107.23,133.56Zm29,.05v-.1c0-9.4-5.07-18.06-14-18.06s-13.89,8.5-13.89,18v.11c0,9.4,5.07,18.05,14,18.05S136.27,143.06,136.27,133.61Z"/></g><g id="Logo"><ellipse class="cls-3" cx="762.6" cy="259.06" rx="102.67" ry="104.18"/><path class="cls-4" d="M726.1,208.49c.66-.34,15.69-.35,36.25,0a5.27,5.27,0,0,1,2.65,2.27,5.5,5.5,0,0,1,.1,4.83l-16.05,21.77h10.83a5.23,5.23,0,0,1-.19,9.75H742.05l-23,32a5,5,0,0,1-8-5.32l19.31-26.59h-13.4a5,5,0,0,1,.89-9.76H737l14.18-19.3h-21l-7.39,10.14a4.85,4.85,0,0,1-7.68-5.51l9.36-13.1a6,6,0,0,1,.79-.69A6.45,6.45,0,0,1,726.1,208.49Z"/><path class="cls-4" d="M724.42,290.25a5,5,0,0,0-.69,4.53,4.88,4.88,0,0,0,3.25,2.86h21.67L737.52,313.2a4.85,4.85,0,0,0,7.69,5.32l28.36-39.4a4.64,4.64,0,0,0-8-4.53l-10.17,13.5H737.82l23.44-32.41"/><path class="cls-4" d="M724.27,290.47l28.86-39.67a4.88,4.88,0,0,1,8.13,4.88l-1,1.44"/><path class="cls-4" d="M694.86,302.07a3.29,3.29,0,0,0,.82,3.25,3.35,3.35,0,0,0,4.06.37L712,289.21a3.12,3.12,0,0,0,.15-2.29,3.28,3.28,0,0,0-2.07-2H697.3a3.14,3.14,0,0,0,.08,6h5.69Z"/><path class="cls-4" d="M787.17,286.34l.1-.14,26.79-37.49h-8.79a4,4,0,0,1-2.81-3.4,4.07,4.07,0,0,1,1.48-3.32l23.27-10.56a3.15,3.15,0,0,1,3.32,1,3.28,3.28,0,0,1,.6,2.8l-5.1,7.17,9.6.15a3,3,0,0,1-.07,5.83H821.74l-29.92,41.89a5.5,5.5,0,0,1-1.62,1.55,5.82,5.82,0,0,1-2.81.89H772.47a3.1,3.1,0,0,1-.23-6.13Z"/><path class="cls-4" d="M815.36,270.3l14.48.15-28.3,39.3a3.17,3.17,0,0,0,4.88,3.77l32.36-45a3.36,3.36,0,0,0-.15-3,3.22,3.22,0,0,0-3.32-1.41h-20a3.21,3.21,0,0,0-.5,6.16l.25.05Z"/><path class="cls-5" d="M723,203.13c.66-.35,15.7-.35,36.25,0a5.19,5.19,0,0,1,2.66,2.27,5.55,5.55,0,0,1,.1,4.82L746,232H756.8a5.22,5.22,0,0,1-.2,9.75H739l-23.05,32a5.18,5.18,0,0,1-6.31,0,5.12,5.12,0,0,1-1.67-5.32l19.3-26.6H713.85a5,5,0,0,1,.88-9.75h19.21l14.19-19.31h-21l-7.39,10.15a4.86,4.86,0,0,1-7.69-5.52l9.36-13.1a6.79,6.79,0,0,1,.79-.69A7.16,7.16,0,0,1,723,203.13Z"/><path class="cls-5" d="M721.33,284.89a5,5,0,0,0-.69,4.53,4.92,4.92,0,0,0,3.26,2.86h21.67l-11.13,15.56a4.94,4.94,0,0,0,1.47,5.32,5,5,0,0,0,6.21,0l28.37-39.4a4.65,4.65,0,0,0-8-4.53l-10.18,13.49H734.73l23.44-32.41"/><path class="cls-5" d="M721.19,285.1l28.86-39.66a4.87,4.87,0,0,1,8.12,4.87l-1,1.44"/><path class="cls-5" d="M692.1,298.66a3.29,3.29,0,0,0,.82,3.25,3.35,3.35,0,0,0,4.06.37l12.26-16.48a3.12,3.12,0,0,0,.15-2.29,3.28,3.28,0,0,0-2.07-2H694.54a3.14,3.14,0,0,0,.07,6h5.69Z"/><path class="cls-5" d="M784.08,282.28l.1-.14L811,244.65h-8.79a4,4,0,0,1-2.81-3.4,4.14,4.14,0,0,1,1.48-3.32l23.27-10.57a3.2,3.2,0,0,1,3.33,1,3.29,3.29,0,0,1,.59,2.81l-5.1,7.17,9.61.15a3,3,0,0,1-.08,5.83H818.66l-29.92,41.89a5.78,5.78,0,0,1-4.44,2.44H769.38a3.1,3.1,0,0,1-.22-6.13Z"/><path class="cls-5" d="M812.6,266.89l14.48.15-28.3,39.3a3.17,3.17,0,0,0,4.88,3.77l32.36-45a3.36,3.36,0,0,0-.15-3,3.22,3.22,0,0,0-3.32-1.41h-20a3.21,3.21,0,0,0-.49,6.16l.25.05Z"/><ellipse class="cls-5" cx="780.92" cy="250.45" rx="13.92" ry="11.38" transform="translate(119.29 735.02) rotate(-54)"/><ellipse class="cls-4" cx="780.73" cy="250.73" rx="9.3" ry="7.41" transform="translate(118.99 734.98) rotate(-54)"/><polyline class="cls-5" points="772.85 258.02 785.61 240.68 788.47 242.66 775.58 260.36"/></g></svg>