<svg id="Overlay" xmlns="http://www.w3.org/2000/svg" viewBox="0 0 909.82 1213.09"><defs><style>.cls-1{fill:#fff;}.cls-2{fill:#f39cc1;}.cls-3{fill:#be3279;}</style></defs><title>ticket</title><ellipse class="cls-1" cx="709.73" cy="200.79" rx="126.49" ry="129.15"/><g id="Queue_Number" data-name="Queue Number"><path d="M249.65,378.45a23,23,0,0,1-16.05,6.24c-14.36,0-23.58-11.52-23.58-24.46v-.13c0-12.94,9.22-24.45,23.58-24.45s23.57,11.51,23.57,24.45v.13a25.55,25.55,0,0,1-6.51,17.21l6.85,6-.95,1.08Zm-1.09-.95-10.49-9.14.94-1.08,10.57,9.21a23.89,23.89,0,0,0,6.1-16.19v-.13c0-12.13-8.94-23.17-22.15-23.17s-22,10.84-22,23v.14c0,12.12,8.94,23.16,22.15,23.16A21.23,21.23,0,0,0,248.56,377.5Z"/><path d="M267.73,369.17V350h1.42v19c0,8.46,4.41,14.29,12.94,14.29,7.52,0,13.48-6.43,13.48-14.56V350H297v33.86h-1.42v-9.28A14,14,0,0,1,282,384.69C272.81,384.69,267.73,378.52,267.73,369.17Z"/><path d="M307.22,366.94v-.14c0-10,6.84-17.61,16.26-17.61,10.7,0,15.57,9.42,15.57,17.88v.28H308.78c.27,9.75,7.11,16,15.44,16a15.84,15.84,0,0,0,12.53-6.84l1.15.81a16.74,16.74,0,0,1-13.75,7.39C314.87,384.69,307.22,377.84,307.22,366.94Zm30.28-.88c-.27-7.72-5.15-15.51-14.09-15.51-8.4,0-14.29,6.64-14.63,15.51Z"/><path d="M348.4,369.17V350h1.42v19c0,8.46,4.41,14.29,12.94,14.29,7.52,0,13.48-6.43,13.48-14.56V350h1.42v33.86h-1.42v-9.28a14,14,0,0,1-13.62,10.1C353.48,384.69,348.4,378.52,348.4,369.17Z"/><path d="M387.89,366.94v-.14c0-10,6.84-17.61,16.25-17.61,10.71,0,15.58,9.42,15.58,17.88v.28H389.45c.27,9.75,7.11,16,15.44,16a15.86,15.86,0,0,0,12.53-6.84l1.15.81a16.74,16.74,0,0,1-13.75,7.39C395.54,384.69,387.89,377.84,387.89,366.94Zm30.27-.88c-.27-7.72-5.14-15.51-14.08-15.51-8.4,0-14.3,6.64-14.63,15.51Z"/><path d="M449.46,336.46h1.28l36,45v-45h1.42v47.41h-1.29l-36-45v45h-1.42Z"/><path d="M500.87,369.17V350h1.42v19c0,8.46,4.4,14.29,12.94,14.29,7.51,0,13.47-6.43,13.47-14.56V350h1.43v33.86H528.7v-9.28a14,14,0,0,1-13.61,10.1C506,384.69,500.87,378.52,500.87,369.17Z"/><path d="M542.72,350h1.43v8.67c1-4.34,5.62-9.49,11.71-9.49,7.39,0,11.11,4.61,12.33,10.09,1.29-4.87,6-10.09,12.13-10.09,7.51,0,12.73,5,12.73,14.63v20.05h-1.42V364c0-8.81-4.68-13.41-11.38-13.41-5.83,0-11.65,5.82-11.65,13.54v19.78h-1.42V364c0-8.81-4.68-13.41-11.38-13.41-5.83,0-11.65,5.82-11.65,13.54v19.78h-1.43Z"/><path d="M606.66,373.37v10.5h-1.42V334.43h1.42V360.5a16,16,0,0,1,15.65-11.31c9.82,0,16.93,7.86,16.93,17.68V367c0,9.82-7.11,17.68-16.93,17.68A16,16,0,0,1,606.66,373.37Zm31.09-6.3v-.13c0-9-6.23-16.39-15.51-16.39s-15.64,7.52-15.64,16.32V367c0,8.73,6.5,16.32,15.64,16.32S637.75,376.15,637.75,367.07Z"/><path d="M647.24,366.94v-.14c0-10,6.84-17.61,16.25-17.61,10.7,0,15.58,9.42,15.58,17.88v.28H648.79c.27,9.75,7.12,16,15.45,16a15.86,15.86,0,0,0,12.53-6.84l1.15.81a16.74,16.74,0,0,1-13.75,7.39C654.89,384.69,647.24,377.84,647.24,366.94Zm30.27-.88c-.27-7.72-5.15-15.51-14.09-15.51-8.4,0-14.29,6.64-14.63,15.51Z"/><path d="M689.09,350h1.43v10.83c1.55-5.62,6.43-11.72,14-11.65v1.36h-.34c-8.47,0-13.61,9.28-13.61,15.78v17.54h-1.43Z"/></g><g id="SATURDAY_8_th" data-name="SATURDAY 8 th"><path class="cls-1" d="M7.41,37l5.1-6.09a16.35,16.35,0,0,0,10,3.35c1.72,0,2.45-.45,2.45-1.22V33c0-.81-.9-1.26-4-1.87C14.59,29.78,9,27.94,9,21.9v-.08c0-5.43,4.24-9.63,12.12-9.63,5.51,0,9.59,1.31,12.9,3.92l-4.65,6.45a15,15,0,0,0-8.57-2.82c-1.43,0-2.09.49-2.09,1.18V21c0,.77.78,1.26,3.8,1.83,7.31,1.35,12.2,3.47,12.2,9.23v.08c0,6-4.93,9.67-12.61,9.67C16.27,41.82,11,40.19,7.41,37Z"/><path class="cls-1" d="M46.23,12.52H55.7l12,28.77H57.37l-1.51-3.84h-10l-1.47,3.84H34.18Zm7.26,18.16-2.61-6.94-2.61,6.94Z"/><path class="cls-1" d="M72.55,20.8h-8.4V12.72H90.51V20.8h-8.4V41.29H72.55Z"/><path class="cls-1" d="M92.43,28.48V12.72h9.72V28.35c0,3.55,1.83,5.06,4.41,5.06S111,32,111,28.56V12.72h9.72V28.27c0,9.76-5.67,13.59-14.21,13.59S92.43,37.94,92.43,28.48Z"/><path class="cls-1" d="M123.7,12.72h14C142.72,12.72,146,14,148,16a9,9,0,0,1,2.61,6.78v.08a9.26,9.26,0,0,1-5.63,8.74l6.65,9.71h-10.9l-5.39-8.16h-2v8.16H123.7Zm13.67,13.59c2.29,0,3.68-1,3.68-2.77v-.09c0-1.83-1.43-2.73-3.64-2.73h-4.16v5.59Z"/><path class="cls-1" d="M152.89,12.72h10.94c11.34,0,17,5.59,17,14v.08c0,8.45-5.8,14.45-17.35,14.45H152.89ZM164,33c4.37,0,7.18-1.79,7.18-5.91V27c0-4.12-2.81-5.91-7.18-5.91h-1.59V33Z"/><path class="cls-1" d="M191.38,12.52h9.47l12,28.77H202.52L201,37.45H191l-1.47,3.84h-10.2Zm7.26,18.16L196,23.74l-2.61,6.94Z"/><path class="cls-1" d="M218.07,31.17,207.3,12.72H218l4.9,9.39,4.94-9.39H238.4L227.62,31.05V41.29h-9.55Z"/><path class="cls-1" d="M248.52,33.41v-.08c0-3.47,2-5.59,5.15-6.86a6.87,6.87,0,0,1-4.17-6.2v-.08c0-4.69,4.7-8,11.47-8s11.47,3.31,11.47,8v.08a6.88,6.88,0,0,1-4.16,6.2c2.9,1.19,5.14,3.23,5.14,6.86v.08c0,5-5.06,8.41-12.45,8.41S248.52,38.35,248.52,33.41Zm15.76-1.06v-.08c0-1.55-1.31-2.77-3.31-2.77s-3.3,1.22-3.3,2.77v.08c0,1.43,1.1,2.86,3.3,2.86A3,3,0,0,0,264.28,32.35ZM264,21.45v-.08a3,3,0,0,0-6,0v.08a3,3,0,0,0,6,0Z"/><path class="cls-1" d="M287.3,33.82V26.15h-2.61V19h2.61v-5.6h9.27V19h5.14v7.14h-5.14v5.63c0,1.67.77,2.29,2.24,2.29a7,7,0,0,0,2.82-.7v7.15a13.47,13.47,0,0,1-5.92,1.26C290.24,41.78,287.3,39.25,287.3,33.82Z"/><path class="cls-1" d="M303.79,11.5h9.27V22a8.54,8.54,0,0,1,6.81-3.51c4.7,0,7.64,3.11,7.64,8.13V41.29h-9.27V29.58c0-1.92-1.14-3-2.53-3a2.75,2.75,0,0,0-2.65,3V41.29h-9.27Z"/></g><g id="FEBRUARY"><path class="cls-1" d="M9.32,59.25H32.76v1H10.38V76h20.3v1H10.38V93.16H9.32Z"/><path class="cls-1" d="M39.55,59.25H63.24v1H40.62V75.62H61.16v1H40.62v15.6H63.48v1H39.55Z"/><path class="cls-1" d="M71.58,59.25h13.9c3.92,0,7,1,8.91,2.9a7.67,7.67,0,0,1,2.19,5.62v.1a7.94,7.94,0,0,1-6.55,8c4.66.68,8.34,3.88,8.34,8.43v.1c0,5.57-4.46,8.77-12.11,8.77H71.58ZM86.26,75.52c5,0,9.25-2.42,9.25-7.6v-.1c0-4.6-3.73-7.61-10.08-7.61H72.64V75.52Zm0,16.67c7,0,11-2.86,11-7.75v-.1c0-5.13-4.65-7.85-10.22-7.85H72.64v15.7Z"/><path class="cls-1" d="M106.7,59.25h13.86c4.41,0,7.65,1.11,9.74,3.19a8.62,8.62,0,0,1,2.42,6.3v.1c0,5.71-4.55,9.11-11.09,9.49l11.28,14.83h-1.3L120.37,78.38h-12.6V93.16H106.7ZM120,77.41c7.84,0,11.62-3.73,11.62-8.52v-.1c0-5.38-4.16-8.58-11.19-8.58H107.77v17.2Z"/><path class="cls-1" d="M141.25,78.14V59.25h1.07V78.14c0,9.74,5.18,14.58,12.69,14.58s12.6-4.84,12.6-14.53V59.25h1.06V78.14c0,10.37-5.52,15.55-13.71,15.55S141.25,88.56,141.25,78.14Z"/><path class="cls-1" d="M189.85,59h.92l16.32,34.16h-1.16L201.09,83H179.48l-4.85,10.18h-1.11ZM200.6,82,190.28,60.41,180,82Z"/><path class="cls-1" d="M213.93,59.25h13.85c4.41,0,7.66,1.11,9.74,3.19a8.62,8.62,0,0,1,2.42,6.3v.1c0,5.71-4.55,9.11-11.09,9.49l11.29,14.83h-1.31L227.59,78.38H215V93.16h-1.07Zm13.32,18.16c7.85,0,11.63-3.73,11.63-8.52v-.1c0-5.38-4.17-8.58-11.19-8.58H215v17.2Z"/><path class="cls-1" d="M258.17,79,243.83,59.25h1.25L258.75,78l13.51-18.79h1.26L259.23,79v14.2h-1.06Z"/></g><g id="_2020" data-name="2020"><path class="cls-1" d="M8.83,151.3l16.73-16.21c5.7-5.49,6.6-8.5,6.6-11.19,0-4.49-4-8.34-9.77-8.34-5.38,0-9.18,3.17-11.51,7.44l-1-.58c2.48-4.59,6.6-7.92,12.57-7.92,6.49,0,10.87,4.23,10.87,9.29v.11c0,3.17-1,6.12-7.07,12l-15.52,15H33.85V152h-25Z"/><path class="cls-1" d="M40.29,133.56v-.1c0-10.09,5.49-19.06,15.1-19.06s15.1,8.92,15.1,19.06v.1c0,10.09-5.49,19.06-15.1,19.06S40.29,143.7,40.29,133.56Zm29,.05v-.1c0-9.4-5.07-18.06-14-18.06s-13.89,8.5-13.89,18v.11c0,9.4,5.07,18.05,14,18.05S69.33,143.06,69.33,133.61Z"/><path class="cls-1" d="M75.71,151.3l16.74-16.21c5.7-5.49,6.6-8.5,6.6-11.19,0-4.49-4-8.34-9.77-8.34-5.38,0-9.19,3.17-11.51,7.44l-1-.58c2.48-4.59,6.6-7.92,12.56-7.92,6.5,0,10.88,4.23,10.88,9.29v.11c0,3.17-.95,6.12-7.07,12l-15.53,15h23.13V152h-25Z"/><path class="cls-1" d="M107.18,133.56v-.1c0-10.09,5.49-19.06,15.1-19.06s15.1,8.92,15.1,19.06v.1c0,10.09-5.5,19.06-15.1,19.06S107.18,143.7,107.18,133.56Zm29,.05v-.1c0-9.4-5.06-18.06-14-18.06s-13.88,8.5-13.88,18v.11c0,9.4,5.07,18.05,14,18.05S136.21,143.06,136.21,133.61Z"/></g><path class="cls-2" d="M664.35,138.81c.82-.42,19.3-.43,44.57,0a6.44,6.44,0,0,1,3.27,2.79,6.81,6.81,0,0,1,.12,5.93l-19.74,26.76h13.32a6.42,6.42,0,0,1-.24,12H684l-28.33,39.36a6.36,6.36,0,0,1-7.75,0,6.29,6.29,0,0,1-2.06-6.54l23.73-32.7H653.09a6.14,6.14,0,0,1,1.09-12H677.8l17.43-23.73H669.44l-9.08,12.47a6,6,0,0,1-9.45-6.78l11.51-16.1a7.56,7.56,0,0,1,1-.85A8.1,8.1,0,0,1,664.35,138.81Z"/><path class="cls-2" d="M662.3,239.32a5.71,5.71,0,0,0,3.14,9.08h26.64L678.4,267.53a6,6,0,0,0,9.45,6.54l34.87-48.43a5.71,5.71,0,0,0-9.78-5.57l-12.5,16.59H678.76l28.82-39.84"/><path class="cls-2" d="M662.11,239.58l35.48-48.76a6.15,6.15,0,0,1,7.75-.66,6.08,6.08,0,0,1,2.24,6.66l-1.27,1.76"/><path class="cls-2" d="M626,253.84a4.07,4.07,0,0,0,1,4,4.12,4.12,0,0,0,5,.45L647,238a3.84,3.84,0,0,0,.18-2.81,4,4,0,0,0-2.54-2.46H629a3.87,3.87,0,0,0,.09,7.36h7Z"/><path class="cls-2" d="M739.43,234.51l.12-.17,32.94-46.09H761.68a4.84,4.84,0,0,1-3.45-4.17,5,5,0,0,1,1.82-4.09l28.6-13a3.9,3.9,0,0,1,4.09,1.18,4,4,0,0,1,.73,3.45l-6.27,8.81,11.81.19a3.64,3.64,0,0,1-.09,7.17h-17l-36.78,51.49a7,7,0,0,1-2,1.91,7.08,7.08,0,0,1-3.45,1.09H721.36a3.82,3.82,0,0,1-.27-7.54Z"/><path class="cls-2" d="M774.09,214.79l17.8.18L757.1,263.29a3.89,3.89,0,0,0,6,4.63l39.78-55.31a4.14,4.14,0,0,0-.19-3.72,3.94,3.94,0,0,0-4.08-1.73H774a3.94,3.94,0,0,0-.61,7.57l.3.06Z"/><path class="cls-3" d="M660.56,132.22c.81-.43,19.3-.43,44.56,0a6.41,6.41,0,0,1,3.27,2.79,6.77,6.77,0,0,1,.12,5.93L688.77,167.7h13.32a6.42,6.42,0,0,1-.24,12H680.18L651.84,219A6.18,6.18,0,0,1,642,212.5l23.74-32.69H649.3a6.14,6.14,0,0,1,1.09-12H674l17.44-23.73H665.65l-9.09,12.47a6,6,0,0,1-9.44-6.78l11.5-16.11a7.51,7.51,0,0,1,1-.84A8.76,8.76,0,0,1,660.56,132.22Z"/><path class="cls-3" d="M658.5,232.73a5.7,5.7,0,0,0,3.15,9.08h26.64l-13.68,19.13a6,6,0,0,0,9.44,6.54L718.93,219a5.71,5.71,0,0,0-9.78-5.57l-12.5,16.59H675l28.82-39.84"/><path class="cls-3" d="M658.32,233l35.48-48.76a6,6,0,0,1,10,6L702.51,192"/><path class="cls-3" d="M622.57,249.65a4,4,0,0,0,1,4,4.1,4.1,0,0,0,5,.46l15.08-20.25a3.93,3.93,0,0,0,.18-2.82,4.06,4.06,0,0,0-2.54-2.45H625.57a3.86,3.86,0,0,0,.09,7.36h7Z"/><path class="cls-3" d="M735.64,229.52l.12-.17,32.93-46.09h-10.8a4.85,4.85,0,0,1-3.45-4.18,5,5,0,0,1,1.81-4.08l28.61-13a3.91,3.91,0,0,1,4.09,1.18,4,4,0,0,1,.72,3.45l-6.26,8.81,11.8.18a3.64,3.64,0,0,1-.09,7.18h-17L741.36,234.3a7.09,7.09,0,0,1-2,1.91,7.25,7.25,0,0,1-3.45,1.09H717.56a3.82,3.82,0,0,1-.27-7.54Z"/><path class="cls-3" d="M770.69,210.6l17.8.18-34.78,48.31a3.89,3.89,0,0,0,6,4.64l39.78-55.31a4.15,4.15,0,0,0-.18-3.73,4,4,0,0,0-4.09-1.72H770.6a3.94,3.94,0,0,0-.6,7.57l.3.06Z"/><ellipse class="cls-3" cx="731.75" cy="190.39" rx="17.11" ry="13.99" transform="translate(147.61 670.48) rotate(-54)"/><ellipse class="cls-2" cx="731.52" cy="190.73" rx="11.44" ry="9.11" transform="translate(147.24 670.44) rotate(-54)"/><polyline class="cls-3" points="721.83 199.69 737.52 178.38 741.03 180.81 725.19 202.57"/></svg>